<svg id="Layer_1" data-name="Layer 1" xmlns="http://www.w3.org/2000/svg" viewBox="0 0 1080 1080"><defs><style>.cls-1{fill:#7952b3;}</style></defs><title>bootstrap</title><path class="cls-1" d="M224.32,109.83c-61.62,0-107.22,53.94-105.18,112.43,2,56.2-.59,129-18.91,188.33C81.84,470.11,50.77,507.83,0,512.67v54.66c50.77,4.85,81.84,42.55,100.23,102.08,18.32,59.35,20.87,132.13,18.91,188.33-2,58.48,43.55,112.43,105.19,112.43H855.76c61.63,0,107.22-53.94,105.17-112.43-2-56.2.59-129,18.91-188.33,18.39-59.53,49.39-97.24,100.16-102.08V512.67c-50.77-4.85-81.77-42.55-100.16-102.08C961.52,351.25,959,278.46,960.93,222.26c2.05-58.48-43.54-112.43-105.17-112.43H224.32ZM732.2,639.43c0,80.54-60.07,129.38-159.77,129.38H402.71a18.3,18.3,0,0,1-18.3-18.3h0v-421a18.3,18.3,0,0,1,18.3-18.3H571.46c83.13,0,137.69,45,137.69,114.17,0,48.52-36.7,92-83.46,99.57v2.54c63.65,7,106.51,51.06,106.51,112ZM553.92,369.21H457.15V505.9h81.51c63,0,97.74-25.37,97.74-70.72,0-42.5-29.87-66-82.48-66ZM457.15,560.14V710.77H557.48c65.6,0,100.35-26.32,100.35-75.79s-35.72-74.85-104.57-74.85H457.15Z"/></svg>