<svg id="Layer_1" data-name="Layer 1" xmlns="http://www.w3.org/2000/svg" viewBox="0 0 1080 1080"><defs><style>.cls-1{fill:none;}.cls-2{fill:#1abcfe;}.cls-3{fill:#0acf83;}.cls-4{fill:#ff7262;}.cls-5{fill:#f24e1e;}.cls-6{fill:#a259ff;}</style></defs><title>figma</title><path class="cls-1" d="M180.48.91H900.35V1080.5H180.48Z"/><path class="cls-2" d="M540.21,540.7c0-99.22,80.44-180.06,180.07-180.06,99.22,0,180.07,80.43,180.07,180.06,0,99.23-80.44,180.07-180.07,180.07-99.22,0-180.07-80.84-180.07-180.07Z"/><path class="cls-3" d="M180.48,900.43c0-99.22,80.44-180.07,180.07-180.07H540.62V900.43c0,99.22-80.44,180.07-180.07,180.07A179.84,179.84,0,0,1,180.48,900.43Z"/><path class="cls-4" d="M540.21.91V360.64H720.28c99.22,0,180.07-80.44,180.07-180.07C900.35,81.35,819.91.5,720.28.5H540.21Z"/><path class="cls-5" d="M180.48,181C180.48,280.2,260.92,361,360.55,361H540.62V.91H360.55A179.84,179.84,0,0,0,180.48,181Z"/><path class="cls-6" d="M180.48,540.7c0,99.23,80.44,180.07,180.07,180.07H540.62V360.64H360.55C260.92,360.64,180.48,441.48,180.48,540.7Z"/></svg>