<svg id="Layer_1" data-name="Layer 1" xmlns="http://www.w3.org/2000/svg" viewBox="0 0 1080 1080"><defs><style>.cls-1{fill:#ff2d20;}</style></defs><title>laravel</title><path class="cls-1" d="M1064,244.32a16.93,16.93,0,0,1,.59,4.42V480.56a16.89,16.89,0,0,1-8.49,14.66l-194.57,112v222A16.94,16.94,0,0,1,853,843.94L446.89,1077.75a17.39,17.39,0,0,1-3,1.22c-.38.13-.74.36-1.14.47a17,17,0,0,1-8.66,0,14.27,14.27,0,0,1-1.33-.55,17.21,17.21,0,0,1-2.79-1.14L23.94,843.94a16.89,16.89,0,0,1-8.49-14.66V133.82a17.21,17.21,0,0,1,.59-4.43c.13-.49.42-.93.59-1.42a16.6,16.6,0,0,1,1.08-2.62,16.68,16.68,0,0,1,1.16-1.5,17.2,17.2,0,0,1,1.5-2A16,16,0,0,1,22,120.62a13.14,13.14,0,0,1,1.86-1.46h0L227,2.26a17,17,0,0,1,16.91,0l203,116.9h0a18.8,18.8,0,0,1,1.86,1.44c.55.42,1.16.8,1.65,1.26a20.92,20.92,0,0,1,1.52,2,16.45,16.45,0,0,1,1.14,1.5,17.53,17.53,0,0,1,1.1,2.62c.17.49.46.93.59,1.44a16.86,16.86,0,0,1,.59,4.41V568.2l169.2-97.42V248.72a17.15,17.15,0,0,1,.59-4.4c.15-.5.42-.95.59-1.43a18.34,18.34,0,0,1,1.1-2.62c.32-.55.78-1,1.14-1.5a17.46,17.46,0,0,1,1.52-2,19,19,0,0,1,1.65-1.27,16.93,16.93,0,0,1,1.86-1.45h0L836.13,117.17a17,17,0,0,1,16.91,0l203,116.91a18.49,18.49,0,0,1,1.9,1.43c.53.43,1.14.81,1.63,1.27a19.73,19.73,0,0,1,1.52,2,12.61,12.61,0,0,1,1.14,1.5,17.26,17.26,0,0,1,1.1,2.62,12.65,12.65,0,0,1,.59,1.43ZM1030.7,470.78V278l-71.05,40.91-98.16,56.52V568.2l169.23-97.42Zm-203,348.72V626.6L731.1,681.74,455.38,839.11v194.71ZM49.3,163.09V819.5l372.23,214.3V839.13L227.07,729.07l-.06,0-.09,0a21.52,21.52,0,0,1-1.82-1.4,19.8,19.8,0,0,1-1.6-1.22l0-.07a17,17,0,0,1-1.4-1.77,19.13,19.13,0,0,1-1.27-1.65l0-.06a13.3,13.3,0,0,1-.88-2.12,11.79,11.79,0,0,1-.81-1.9v0a17.06,17.06,0,0,1-.34-2.47,15.71,15.71,0,0,1-.25-1.9V260.51L120.35,204l-71-40.86ZM235.44,36.44,66.26,133.82,235.39,231.2l169.16-97.4L235.39,36.44Zm88,607.74,98.15-56.5V163.09L350.5,204l-98.16,56.52V685.1ZM844.58,151.36,675.43,248.74l169.15,97.38,169.14-97.4ZM827.66,375.43,729.5,318.91,658.44,278V470.78l98.15,56.49,71.07,40.93ZM438.44,809.84,686.55,668.2l124-70.78-169-97.32-194.61,112L269.56,714.26Z"/></svg>