<svg id="Layer_1" data-name="Layer 1" xmlns="http://www.w3.org/2000/svg" viewBox="0 0 1080 1080"><defs><style>.cls-1{fill:#8cc84b;}</style></defs><title>nodejs</title><path class="cls-1" d="M495.78,11.52c26.78-15.33,61.66-15.4,88.42,0Q786.1,125.61,988,239.63c25.31,14.26,42.24,42.43,42,71.6v457.6c.19,30.38-18.41,59.22-45.12,73.16Q783.66,955.45,582.5,1069c-27.33,15.63-62.91,14.43-89.39-2.48q-60.33-35-120.74-69.82c-8.22-4.9-17.49-8.8-23.29-16.77,5.13-6.91,14.3-7.77,21.76-10.79,16.79-5.34,32.21-13.91,47.63-22.23,3.9-2.67,8.66-1.64,12.4.74,34.4,19.72,68.49,40,103,59.55,7.36,4.25,14.82-1.39,21.11-4.9q197.47-111.61,395.11-223a13.07,13.07,0,0,0,7.17-12.87q.15-226.43,0-452.89a14.14,14.14,0,0,0-8.43-14.11q-200.55-112.95-401-226a13.91,13.91,0,0,0-15.74,0q-200.52,113-401,226.1a14,14,0,0,0-8.48,14.05q0,226.44,0,452.92a12.82,12.82,0,0,0,7.27,12.7q53.5,30.34,107.09,60.47c20.1,10.83,44.8,17.26,66.95,9,19.55-7,33.26-27,32.88-47.73.19-150.07-.09-300.17.14-450.22-.49-6.66,5.83-12.16,12.31-11.54,17.14-.11,34.3-.23,51.44.05,7.16-.16,12.08,7,11.2,13.72-.07,151,.18,302.06-.12,453.08,0,40.25-16.49,84-53.72,103.74-45.86,23.76-102.55,18.72-147.86-4.06C171,886.09,133.61,863,95.08,842,68.3,828.15,49.79,799.19,50,768.84V311.23c-.28-29.78,17.32-58.46,43.42-72.51Q294.61,125.17,495.78,11.52Z"/><path class="cls-1" d="M612.81,328.51c58.5-3.77,121.13-2.23,173.78,26.59,40.76,22.09,63.36,68.44,64.08,113.72-1.14,6.11-7.53,9.48-13.36,9.06-17,0-33.95.23-50.92-.11C779.18,478,775,471.4,774.1,465c-4.88-21.67-16.7-43.13-37.09-53.58-31.31-15.67-67.61-14.88-101.74-14.56-24.93,1.33-51.72,3.48-72.84,18.14-16.21,11.1-21.13,33.51-15.34,51.56,5.45,13,20.41,17.14,32.65,21C650.24,506,725,504.2,794.12,528.46c28.63,9.9,56.64,29.13,66.44,59.11,12.82,40.18,7.2,88.2-21.39,120.46-23.18,26.55-56.94,41-90.62,48.84-44.8,10-91.29,10.24-136.79,5.81-42.78-4.88-87.3-16.12-120.32-45.27-28.24-24.52-42-62.73-40.67-99.6.33-6.23,6.53-10.57,12.5-10.06,17.09-.14,34.18-.18,51.28,0,6.83-.49,11.89,5.42,12.24,11.85,3.15,20.64,10.91,42.31,28.91,54.55,34.74,22.41,78.33,20.88,118.11,21.51,33-1.47,70-1.91,96.85-23.69,14.19-12.42,18.39-33.21,14.56-51.09-4.15-15.1-20-22.14-33.51-26.74-69.6-22-145.15-14-214.08-38.92-28-9.89-55-28.59-65.79-57.34-15-40.68-8.13-91,23.45-122.18,30.8-31,75.25-42.94,117.52-47.22Z"/></svg>