<svg id="Layer_1" data-name="Layer 1" xmlns="http://www.w3.org/2000/svg" viewBox="0 0 1080 1080"><defs><style>.cls-1{fill:#00dc82;}</style></defs><title>nuxtjs</title><path class="cls-1" d="M605.89,900h401.48a73.22,73.22,0,0,0,36.32-9.64A72.22,72.22,0,0,0,1070.28,864a71.43,71.43,0,0,0,0-72L800.62,329.15A72.27,72.27,0,0,0,774,302.79a73.22,73.22,0,0,0-72.63,0,72.27,72.27,0,0,0-26.58,26.36L605.89,447.57,471.1,216a72.37,72.37,0,0,0-26.6-26.35,73.24,73.24,0,0,0-72.64,0A72.27,72.27,0,0,0,345.27,216L9.75,792a71.7,71.7,0,0,0,26.56,98.36A73.22,73.22,0,0,0,72.63,900h252c99.85,0,173.48-43.47,224.15-128.28l123-211.15,65.89-113L935.46,787H671.82ZM320.54,786.88l-175.88,0L408.3,334.3,539.84,560.57,451.77,711.81C418.12,766.84,379.89,786.88,320.54,786.88Z"/></svg>