<svg id="Layer_1" data-name="Layer 1" xmlns="http://www.w3.org/2000/svg" viewBox="0 0 1080 1080"><defs><style>.cls-1{fill:#2489ca;}.cls-2{fill:#1070b3;}.cls-3{fill:#0877b9;}.cls-4{fill:#3c99d4;}</style></defs><title>vscode</title><path class="cls-1" d="M10.28,378.36s-26.31-19,5.26-44.28l73.54-65.76s21-22.14,43.29-2.85L811,779.29v246.39s-.33,38.69-50,34.41Z"/><path class="cls-2" d="M185.2,537.18l-174.92,159s-18,13.37,0,37.26l81.21,73.88s19.29,20.71,47.79-2.85L324.73,663.88Z"/><path class="cls-3" d="M492.31,538.49l320.81-245L811,48.45S797.34-5,751.63,22.81L324.73,411.35Z"/><path class="cls-4" d="M761.06,1060.42a44.11,44.11,0,0,0,41.21,12.82l250-123.19c32-21.81,27.51-48.88,27.51-48.88V165.51c0-32.33-33.1-43.51-33.1-43.51L830,17.55c-47.35-29.27-78.37,5.26-78.37,5.26S791.53-5.91,811,48.45v972.73a44.17,44.17,0,0,1-4.28,19.18c-5.7,11.51-18.08,22.25-47.78,17.76Z"/></svg>