<svg id="Layer_1" data-name="Layer 1" xmlns="http://www.w3.org/2000/svg" viewBox="0 0 1080 1080"><defs><style>.cls-1{fill:#464342;}</style></defs><title>wordpress</title><path class="cls-1" d="M76.76,540c0,183.36,106.55,341.81,261.07,416.9l-221-605.42A461.39,461.39,0,0,0,76.76,540Zm776-23.38c0-57.25-20.57-96.9-38.2-127.75C791,350.7,769,318.39,769,280.23c0-42.58,32.3-82.22,77.79-82.22,2.06,0,4,.25,6,.37A461.48,461.48,0,0,0,540,76.77c-161.83,0-304.21,83-387,208.8,10.87.33,21.11.55,29.81.55,48.45,0,123.45-5.87,123.45-5.87,25-1.48,27.92,35.2,3,38.15,0,0-25.09,3-53,4.42l168.7,501.76,101.37-304L454.06,322.8c-24.94-1.46-48.58-4.41-48.58-4.41-25-1.46-22-39.63,2.93-38.16,0,0,76.5,5.88,122,5.88,48.45,0,123.45-5.88,123.45-5.88,25-1.47,27.93,35.2,3,38.16,0,0-25.15,2.95-53,4.41l167.41,498,46.2-154.4c20-64.07,35.27-110.09,35.27-149.75Zm-304.59,63.9-139,403.86A463.55,463.55,0,0,0,693.82,977a40.23,40.23,0,0,1-3.3-6.39L548.12,580.51ZM946.46,317.74a355.86,355.86,0,0,1,3.12,47.63c0,47-8.78,99.85-35.23,165.92L772.86,940.4C910.57,860.09,1003.2,710.89,1003.2,540a460.63,460.63,0,0,0-56.75-222.26ZM540,0C242.24,0,0,242.24,0,540s242.24,540,540,540,540-242.22,540-540S837.73,0,540,0Zm0,1055.21C255.9,1055.23,24.76,824.09,24.76,540S255.89,24.77,540,24.77,1055.19,255.9,1055.19,540,824.07,1055.23,540,1055.23Z"/></svg>