<svg xmlns="http://www.w3.org/2000/svg" viewBox="0 0 639.32 515.88"><title>icon-dark</title><g id="Layer_2" data-name="Layer 2"><g id="Layer_1-2" data-name="Layer 1"><path d="M455.42,105a155,155,0,0,1,67,1.77A154.38,154.38,0,1,1,375.79,365.65L340.16,330l53-53,35.63,35.64a79.4,79.4,0,1,0,52.76-135.44A136.83,136.83,0,0,0,455.42,105Z"/><path d="M45.21,365.65a154.32,154.32,0,0,0,218.31,0L428.81,200.36a79.2,79.2,0,0,1,24.1-16.52A107.83,107.83,0,0,0,425.47,114a153.9,153.9,0,0,0-49.68,33.34L210.5,312.63a79.39,79.39,0,1,1-2.57-114.72c.87.79,1.73,1.61,2.57,2.45L246.13,236l53-53-35.64-35.63a154,154,0,0,0-146.65-40.61,153.5,153.5,0,0,0-71.66,40.61A154.38,154.38,0,0,0,45.21,365.65Z"/><path d="M413,256.49l36-36a50.9,50.9,0,1,1,0,72Z"/><path d="M278.28,121.82l10.77,10.77,30.61,30.61,30.55-30.55,10.88-10.88a181.82,181.82,0,0,1,83-43.67,138.29,138.29,0,0,0-248.95,0A181.78,181.78,0,0,1,278.28,121.82Z"/><path d="M361,394.07l-10.78-10.78-30.6-30.61-30.55,30.55-10.89,10.88a181.73,181.73,0,0,1-83,43.67,138.25,138.25,0,0,0,248.94,0A181.82,181.82,0,0,1,361,394.07Z"/><path d="M118.38,220.5a50.9,50.9,0,0,1,72,0l36,36-36,36a50.9,50.9,0,0,1-72-72Z"/></g></g></svg>