<svg xmlns="http://www.w3.org/2000/svg" viewBox="0 0 639.32 526.57"><defs><style>.cls-1{fill:#fff;}.cls-2{fill:#fabc2a;}.cls-3{fill:#0d0577;}.cls-4{fill:#ff515f;}.cls-5{fill:#379d59;}.cls-6{fill:#4085ff;}</style></defs><title>icon-duotone</title><g id="Layer_2" data-name="Layer 2"><g id="Layer_1-2" data-name="Layer 1"><path class="cls-1" d="M590,142.77A168.36,168.36,0,0,0,470.84,93.4c-3.14,0-6.28.1-9.42.28l-3.27-6.78A154.47,154.47,0,0,0,441.4,59.82,153.85,153.85,0,0,0,181.17,86.9l-3.27,6.78c-3.13-.18-6.27-.28-9.41-.28a168.12,168.12,0,0,0-119.2,49.37c-65.72,65.72-65.72,172.66,0,238.38a168.39,168.39,0,0,0,119.2,49.37h0q4.11,0,8.17-.2l4.51,9.35a153.84,153.84,0,0,0,277,0l4.51-9.35q4.06.19,8.17.2h0A168.12,168.12,0,0,0,590,381.15C655.75,315.43,655.75,208.49,590,142.77Z"/><path class="cls-2" d="M443.83,123.36a141.85,141.85,0,0,1,61.3,1.62A141.2,141.2,0,1,1,371,361.8l-32.59-32.59,48.49-48.5,32.6,32.59a72.63,72.63,0,1,0,48.25-123.87A125.21,125.21,0,0,0,443.83,123.36Z"/><path class="cls-3" d="M68.64,361.8a141.16,141.16,0,0,0,199.68,0L419.5,210.62a72,72,0,0,1,22-15.1,98.69,98.69,0,0,0-25.1-63.89A140.81,140.81,0,0,0,371,162.12L219.82,313.3a72.61,72.61,0,1,1-2.35-104.92c.79.72,1.58,1.47,2.35,2.24l32.59,32.59,48.5-48.49-32.59-32.6a142.4,142.4,0,0,0-13-11.53,140.07,140.07,0,0,0-22.38-14.31A141.53,141.53,0,0,0,134.18,125,141.22,141.22,0,0,0,68.64,361.8Z"/><path class="cls-4" d="M405,262,437.91,229a46.56,46.56,0,1,1,0,65.84Z"/><path class="cls-5" d="M281.81,138.78l9.86,9.86,28,28,27.94-27.95,10-9.95A166.21,166.21,0,0,1,433.5,98.8a126.46,126.46,0,0,0-227.69,0A166.2,166.2,0,0,1,281.81,138.78Z"/><path class="cls-6" d="M357.51,387.79l-9.86-9.86-28-28-28,27.95-9.95,9.95a166.19,166.19,0,0,1-75.95,39.94,126.47,126.47,0,0,0,227.7,0A166.2,166.2,0,0,1,357.51,387.79Z"/><path class="cls-4" d="M135.56,229a46.57,46.57,0,0,1,65.85,0L234.33,262l-32.92,32.92A46.56,46.56,0,0,1,135.56,229Z"/></g></g></svg>