<svg xmlns="http://www.w3.org/2000/svg" viewBox="0 0 1546.04 194.49"><defs><style>.cls-1{fill:#fabc2a;}.cls-2{fill:#0d0577;}.cls-3{fill:#ff515f;}.cls-4{fill:#379d59;}.cls-5{fill:#4085ff;}.cls-6{fill:#fff;}</style></defs><title>logo-duotone-long</title><g id="Layer_2" data-name="Layer 2"><g id="Layer_1-2" data-name="Layer 1"><path class="cls-1" d="M171.69,39.57a58.4,58.4,0,0,1,25.27.67,57.94,57.94,0,0,1,27,15.31,58.2,58.2,0,1,1-82.31,82.3l-13.43-13.43,20-20,13.43,13.43a29.92,29.92,0,1,0,24.08-50.95,30.83,30.83,0,0,0-4.19-.11A51.57,51.57,0,0,0,171.69,39.57Z"/><path class="cls-2" d="M17,137.85a58.19,58.19,0,0,0,82.31,0l62.31-62.31a29.79,29.79,0,0,1,9.09-6.23A40.68,40.68,0,0,0,160.4,43a57.88,57.88,0,0,0-18.73,12.57L79.36,117.86a29.93,29.93,0,1,1-1-43.25c.33.3.65.61,1,.93L92.79,89l20-20L99.35,55.55A58.53,58.53,0,0,0,94,50.79a57.56,57.56,0,0,0-9.22-5.9,58.34,58.34,0,0,0-40.69-4.65A57.94,57.94,0,0,0,17,55.55,58.21,58.21,0,0,0,17,137.85Z"/><path class="cls-3" d="M155.68,96.7l13.57-13.57a19.19,19.19,0,1,1,0,27.14Z"/><path class="cls-4" d="M104.91,45.92,109,50l11.54,11.54L132,50l4.1-4.1a68.6,68.6,0,0,1,31.31-16.47,52.57,52.57,0,0,0-5.68-9.17,52.11,52.11,0,0,0-82.5,0,52.57,52.57,0,0,0-5.68,9.17A68.63,68.63,0,0,1,104.91,45.92Z"/><path class="cls-5" d="M136.11,148.56l-4.06-4.06L120.51,133,109,144.48l-4.1,4.1A68.6,68.6,0,0,1,73.59,165a52.1,52.1,0,0,0,88.17,9.17,52.57,52.57,0,0,0,5.68-9.17A68.44,68.44,0,0,1,136.11,148.56Z"/><path class="cls-3" d="M44.63,83.13a19.18,19.18,0,0,1,27.14,0L85.34,96.7,71.77,110.27A19.19,19.19,0,0,1,44.63,83.13Z"/><path class="cls-6" d="M342.08,28a19.62,19.62,0,0,1,10.29,2.71,17.88,17.88,0,0,1,7,7.87h22.1a37.29,37.29,0,0,0-14-21.16Q357,9.7,342.32,9.69A42.9,42.9,0,0,0,320.86,15,37.91,37.91,0,0,0,306.1,30a44.45,44.45,0,0,0-5.29,21.81,44.06,44.06,0,0,0,5.29,21.75,38,38,0,0,0,14.76,14.88,42.8,42.8,0,0,0,21.46,5.35q14.69,0,25.16-7.7a37,37,0,0,0,14-21.11h-22.1a17.86,17.86,0,0,1-7,7.88,19.71,19.71,0,0,1-10.29,2.7A19.2,19.2,0,0,1,327,69.07q-5.76-6.46-5.76-17.29T327,34.5A19.21,19.21,0,0,1,342.08,28Z"/><path class="cls-6" d="M430,10.63,400.16,93.17h21l4.94-14.58H457l4.94,14.58h21.28L453.31,10.63Zm1.41,52.44,10.11-30.22,10.23,30.22Z"/><polygon class="cls-6" points="499.51 26.74 521.38 26.74 521.38 93.17 541.49 93.17 541.49 26.74 563.36 26.74 563.36 10.63 499.51 10.63 499.51 26.74"/><path class="cls-6" d="M609.68,10.63,579.82,93.17h21l4.94-14.58h30.8l4.94,14.58h21.28L633,10.63Zm1.41,52.44L621.2,32.85l10.23,30.22Z"/><polygon class="cls-6" points="679.17 26.74 701.04 26.74 701.04 93.17 721.14 93.17 721.14 26.74 743.01 26.74 743.01 10.63 679.17 10.63 679.17 26.74"/><path class="cls-6" d="M789.33,10.63,759.47,93.17h21l4.94-14.58h30.81l4.94,14.58h21.28L812.61,10.63Zm1.41,52.44,10.12-30.22,10.22,30.22Z"/><polygon class="cls-6" points="917.02 61.78 883.39 10.63 863.29 10.63 863.29 93.17 883.39 93.17 883.39 42.26 917.02 93.17 937.12 93.17 937.12 10.63 917.02 10.63 917.02 61.78"/><path class="cls-6" d="M1038,28a19.62,19.62,0,0,1,10.29,2.71,17.88,17.88,0,0,1,7,7.87h22.1a37.29,37.29,0,0,0-14-21.16q-10.47-7.75-25.16-7.76A42.9,42.9,0,0,0,1016.78,15,37.91,37.91,0,0,0,1002,30a44.45,44.45,0,0,0-5.29,21.81A44.06,44.06,0,0,0,1002,73.53a38,38,0,0,0,14.76,14.88,42.8,42.8,0,0,0,21.46,5.35q14.68,0,25.16-7.7a37,37,0,0,0,14-21.11h-22.1a17.86,17.86,0,0,1-7,7.88,19.71,19.71,0,0,1-10.29,2.7,19.2,19.2,0,0,1-15-6.46q-5.76-6.46-5.76-17.29T1023,34.5A19.21,19.21,0,0,1,1038,28Z"/><path class="cls-6" d="M1126,10.63l-29.87,82.54h21.05l4.94-14.58h30.8l4.94,14.58h21.28l-29.86-82.54Zm1.41,52.44,10.11-30.22,10.23,30.22Z"/><polygon class="cls-6" points="1271.15 10.63 1247.52 10.63 1220.01 46.84 1220.01 10.63 1199.9 10.63 1199.9 93.17 1220.01 93.17 1220.01 56.72 1247.76 93.17 1272.33 93.17 1239.17 51.08 1271.15 10.63"/><path class="cls-6" d="M1354.75,10.63l-29.87,82.54h21l4.94-14.58h30.8l4.94,14.58h21.28L1378,10.63Zm1.41,52.44,10.11-30.22,10.23,30.22Z"/><path class="cls-6" d="M1482.43,15.81q-9.77-5.18-22.81-5.18H1428.7V93.17h30.92q12.93,0,22.75-5.17a36.78,36.78,0,0,0,15.17-14.58,42.74,42.74,0,0,0,5.35-21.52,42.61,42.61,0,0,0-5.35-21.57A36.91,36.91,0,0,0,1482.43,15.81Zm-6.35,53.73q-6.35,6.22-17.75,6.23h-9.52v-48h9.52q11.4,0,17.75,6.35t6.35,17.75Q1482.43,63.3,1476.08,69.54Z"/><rect class="cls-6" x="1525.93" y="10.63" width="20.11" height="82.54"/><polygon class="cls-6" points="330.78 171.12 330.23 171.12 316.25 137.01 305.81 137.01 305.81 184.08 314 184.08 314 151.67 314.43 151.67 327.44 183.94 333.56 183.94 346.57 151.74 347 151.74 347 184.08 355.19 184.08 355.19 137.01 344.75 137.01 330.78 171.12"/><path class="cls-6" d="M390.94,137l-16.58,47.07h9.11l3.89-11.61h17.7l3.9,11.61h9.1L401.47,137Zm-1.28,28.61,6.36-19h.37l6.37,19Z"/><polygon class="cls-6" points="475.1 137.01 464.68 137.01 446.32 158.64 445.74 158.64 445.74 137.01 437.21 137.01 437.21 184.08 445.74 184.08 445.74 170.06 450.96 163.9 465 184.08 475.26 184.08 456.89 158.13 475.1 137.01"/><polygon class="cls-6" points="502.5 164.08 523 164.08 523 156.94 502.5 156.94 502.5 144.16 524.59 144.16 524.59 137.01 493.97 137.01 493.97 184.08 524.77 184.08 524.77 176.93 502.5 176.93 502.5 164.08"/><rect class="cls-6" x="575.26" y="137.01" width="8.53" height="47.08"/><polygon class="cls-6" points="603.93 144.16 618.48 144.16 618.48 184.08 626.94 184.08 626.94 144.16 641.49 144.16 641.49 137.01 603.93 137.01 603.93 144.16"/><path class="cls-6" d="M704.18,137l-16.57,47.07h9.1l3.9-11.61H718.3l3.9,11.61h9.11L714.71,137Zm-1.28,28.61,6.36-19h.37l6.37,19Z"/><path class="cls-6" d="M801,166.11h10.83a11.8,11.8,0,0,1-1.41,5.66,9.66,9.66,0,0,1-4.06,3.92,13.17,13.17,0,0,1-6.21,1.38,12.1,12.1,0,0,1-11.61-7.54,21.79,21.79,0,0,1-1.68-9,21.42,21.42,0,0,1,1.69-9,12.86,12.86,0,0,1,4.65-5.6A12.24,12.24,0,0,1,800,144a13.54,13.54,0,0,1,3.91.54,9.89,9.89,0,0,1,3.18,1.59,10.69,10.69,0,0,1,2.39,2.54A12.46,12.46,0,0,1,811,152h8.69a17.61,17.61,0,0,0-2.23-6.35,18.18,18.18,0,0,0-4.33-5,19.8,19.8,0,0,0-6-3.23,22.62,22.62,0,0,0-7.28-1.14,21.86,21.86,0,0,0-8.55,1.65,19.46,19.46,0,0,0-6.85,4.78,21.92,21.92,0,0,0-4.54,7.62,29.83,29.83,0,0,0-1.62,10.18A28.11,28.11,0,0,0,781,173.45a20.07,20.07,0,0,0,7.66,8.35,23.67,23.67,0,0,0,21.75.55,17.43,17.43,0,0,0,7.08-6.8,20.32,20.32,0,0,0,2.58-10.45v-5.66H801Z"/><path class="cls-6" d="M868,165a12.67,12.67,0,0,0,5.65-5.13,15.4,15.4,0,0,0,1.92-7.85,15.94,15.94,0,0,0-1.9-7.89,13,13,0,0,0-5.59-5.28,19.82,19.82,0,0,0-9.11-1.88H841.29v47.07h8.52V166.84h8.68l9.25,17.24h9.52l-10.19-18.64C867.38,165.31,867.68,165.18,868,165Zm-18.16-20.91h7.82a12.58,12.58,0,0,1,5.22.93,6.36,6.36,0,0,1,3,2.72,8.65,8.65,0,0,1,1,4.28,8.42,8.42,0,0,1-1,4.22,6.17,6.17,0,0,1-3,2.6,13.06,13.06,0,0,1-5.19.88h-7.87Z"/><polygon class="cls-6" points="904.87 164.08 925.38 164.08 925.38 156.94 904.87 156.94 904.87 144.16 926.96 144.16 926.96 137.01 896.34 137.01 896.34 184.08 927.15 184.08 927.15 176.93 904.87 176.93 904.87 164.08"/><path class="cls-6" d="M962.14,137l-16.58,47.07h9.1l3.9-11.61h17.7l3.9,11.61h9.1L972.66,137Zm-1.28,28.61,6.36-19h.36l6.37,19Z"/><polygon class="cls-6" points="1000.64 144.16 1015.19 144.16 1015.19 184.08 1023.65 184.08 1023.65 144.16 1038.2 144.16 1038.2 137.01 1000.64 137.01 1000.64 144.16"/><polygon class="cls-6" points="1085.31 144.16 1099.86 144.16 1099.86 184.08 1108.32 184.08 1108.32 144.16 1122.87 144.16 1122.87 137.01 1085.31 137.01 1085.31 144.16"/><polygon class="cls-6" points="1173.38 156.94 1151.56 156.94 1151.56 137.01 1143.03 137.01 1143.03 184.08 1151.56 184.08 1151.56 164.08 1173.38 164.08 1173.38 184.08 1181.93 184.08 1181.93 137.01 1173.38 137.01 1173.38 156.94"/><rect class="cls-6" x="1204.14" y="137.01" width="8.53" height="47.08"/><polygon class="cls-6" points="1265.08 169.09 1264.66 169.09 1242.51 137.01 1234.87 137.01 1234.87 184.08 1243.4 184.08 1243.4 152.02 1243.79 152.02 1265.97 184.08 1273.56 184.08 1273.56 137.01 1265.08 137.01 1265.08 169.09"/><path class="cls-6" d="M1317.29,166.11h10.83a11.8,11.8,0,0,1-1.41,5.66,9.66,9.66,0,0,1-4.06,3.92,13.19,13.19,0,0,1-6.22,1.38,12.1,12.1,0,0,1-11.6-7.54,21.79,21.79,0,0,1-1.68-9,21.42,21.42,0,0,1,1.69-9,12.79,12.79,0,0,1,4.65-5.6,12.24,12.24,0,0,1,6.76-1.9,13.54,13.54,0,0,1,3.91.54,10.1,10.1,0,0,1,3.18,1.59,10.69,10.69,0,0,1,2.39,2.54,12.77,12.77,0,0,1,1.58,3.35H1336a17.8,17.8,0,0,0-2.23-6.35,18,18,0,0,0-4.34-5,19.63,19.63,0,0,0-6-3.23,22.62,22.62,0,0,0-7.28-1.14,22,22,0,0,0-8.56,1.65,19.55,19.55,0,0,0-6.85,4.78,22.23,22.23,0,0,0-4.54,7.62,29.83,29.83,0,0,0-1.62,10.18,28.11,28.11,0,0,0,2.75,12.86,20,20,0,0,0,7.66,8.35,23.67,23.67,0,0,0,21.75.55,17.43,17.43,0,0,0,7.08-6.8,20.32,20.32,0,0,0,2.58-10.45v-5.66h-19.1Z"/><path class="cls-6" d="M1390.87,165.53a12,12,0,0,0-3.12-3.88,18.52,18.52,0,0,0-4.43-2.67,31.86,31.86,0,0,0-5.14-1.68l-4.41-1.1a27.06,27.06,0,0,1-2.88-.85,13.22,13.22,0,0,1-2.59-1.25,5.88,5.88,0,0,1-1.85-1.83,4.63,4.63,0,0,1-.68-2.55,5.3,5.3,0,0,1,1-3.15,6.86,6.86,0,0,1,2.92-2.19,11.88,11.88,0,0,1,4.58-.8,10.49,10.49,0,0,1,6.17,1.68,6.32,6.32,0,0,1,2.7,4.69h8.21a12.38,12.38,0,0,0-2.23-7,14.6,14.6,0,0,0-6-4.8,20.83,20.83,0,0,0-8.79-1.74,21.57,21.57,0,0,0-8.85,1.74,15,15,0,0,0-6.17,4.86,12.08,12.08,0,0,0-2.27,7.29,10.41,10.41,0,0,0,3.37,8.1,21.48,21.48,0,0,0,9.19,4.54l5.35,1.38a29.49,29.49,0,0,1,4.43,1.46,8.09,8.09,0,0,1,3,2,4.54,4.54,0,0,1,1.08,3.05,5.55,5.55,0,0,1-1.22,3.52,7.65,7.65,0,0,1-3.3,2.35,13.09,13.09,0,0,1-4.88.84,13.61,13.61,0,0,1-4.82-.81,8,8,0,0,1-3.48-2.43,7.18,7.18,0,0,1-1.52-4.09h-8.39a14.73,14.73,0,0,0,2.45,7.95,14.06,14.06,0,0,0,6.3,5,24.32,24.32,0,0,0,9.53,1.71,23.85,23.85,0,0,0,9.64-1.76,13.93,13.93,0,0,0,6.1-4.9,12.71,12.71,0,0,0,2.12-7.27A11.67,11.67,0,0,0,1390.87,165.53Z"/></g></g></svg>