<svg xmlns="http://www.w3.org/2000/svg" viewBox="0 0 1088.12 194.49"><title>logo-dark</title><g id="Layer_2" data-name="Layer 2"><g id="Layer_1-2" data-name="Layer 1"><path d="M208.3,44.36A57.52,57.52,0,0,0,197,40.24a58.4,58.4,0,0,0-25.27-.67,51.57,51.57,0,0,1,9.86,27.23,30.83,30.83,0,0,1,4.19.11,29.93,29.93,0,1,1-24.08,51l-13.43-13.43-20,20,13.43,13.43A58.2,58.2,0,1,0,208.3,44.36Z"/><path d="M161.66,75.54a29.79,29.79,0,0,1,9.09-6.23A40.68,40.68,0,0,0,160.4,43a57.88,57.88,0,0,0-18.73,12.57L79.36,117.86a29.93,29.93,0,1,1-1-43.25c.33.3.65.61,1,.93L92.79,89l20-20L99.35,55.55A58.53,58.53,0,0,0,94,50.79a57.56,57.56,0,0,0-9.22-5.9,58.34,58.34,0,0,0-40.69-4.65,56.9,56.9,0,0,0-11.34,4.12,58.2,58.2,0,1,0,66.63,93.49Z"/><path d="M169.25,110.27a19.19,19.19,0,1,0,0-27.14L155.68,96.7Z"/><path d="M109,50l11.54,11.54L132,50l4.1-4.1a68.6,68.6,0,0,1,31.31-16.47,52.57,52.57,0,0,0-5.68-9.17,52.11,52.11,0,0,0-82.5,0,52.57,52.57,0,0,0-5.68,9.17,68.63,68.63,0,0,1,31.33,16.48Z"/><path d="M132.05,144.5,120.51,133,109,144.48l-4.1,4.1A68.6,68.6,0,0,1,73.59,165a52.1,52.1,0,0,0,88.17,9.17,52.57,52.57,0,0,0,5.68-9.17,68.44,68.44,0,0,1-31.33-16.48Z"/><path d="M44.63,83.13a19.19,19.19,0,0,0,27.14,27.14L85.34,96.7,71.77,83.13A19.18,19.18,0,0,0,44.63,83.13Z"/><path d="M308.85,66.09A54.14,54.14,0,0,1,330,44.7,61.38,61.38,0,0,1,360.72,37q21.06,0,36,11.12t20.05,30.31H385.14a25.58,25.58,0,0,0-10-11.28,28.21,28.21,0,0,0-14.74-3.87q-13.31,0-21.55,9.26t-8.26,24.76q0,15.49,8.26,24.76t21.55,9.26a28.12,28.12,0,0,0,14.74-3.88,25.58,25.58,0,0,0,10-11.28h31.67q-5.06,19.2-20.05,30.23t-36,11A61.37,61.37,0,0,1,330,149.79a54.3,54.3,0,0,1-21.13-21.3q-7.59-13.65-7.58-31.16T308.85,66.09Z"/><path d="M524.93,135.73H480.8l-7.07,20.88H443.58L486.36,38.38h33.35l42.78,118.23H532Zm-7.41-22.23L502.87,70.21,488.38,113.5Z"/><path d="M660.85,156.61,621.1,104.4v52.21H592.3V38.38h28.8V90.25l39.41-51.87h33.85L648.55,96.32l47.5,60.29Z"/><path d="M852.67,135.73H808.55l-7.08,20.88H771.33L814.11,38.38h33.34l42.78,118.23H859.75Zm-7.41-22.23L830.61,70.21,816.13,113.5Z"/><path d="M997,45.79a52.91,52.91,0,0,1,21.64,20.8q7.67,13.39,7.67,30.91,0,17.34-7.67,30.82a52.69,52.69,0,0,1-21.72,20.88q-14.07,7.41-32.59,7.41H920V38.38h44.3Q983,38.38,997,45.79Zm-9.09,77Q997,113.84,997,97.5t-9.09-25.44Q978.82,63,962.49,63H948.84v68.72h13.65Q978.81,131.69,987.92,122.76Z"/><path d="M1088.12,38.38V156.61h-28.79V38.38Z"/></g></g></svg>