<svg xmlns="http://www.w3.org/2000/svg" viewBox="0 0 360 360"><defs><style>.cls-1{fill:none;}.cls-2{fill:#009245;}.cls-3{fill:#2e3192;}.cls-4{fill:#f7941d;}</style></defs><g id="Layer_1" data-name="Layer 1"><rect class="cls-1" width="360" height="360"/><path class="cls-2" d="M232.64,180v52.64H180A52.64,52.64,0,1,1,232.64,180Z"/><path class="cls-3" d="M261.4,82.57A127,127,0,1,0,180,307h45.79a58.33,58.33,0,0,1-9-45.56H180A81.41,81.41,0,1,1,261.4,180v36.81a58.26,58.26,0,0,1,45.56,9V180A126.66,126.66,0,0,0,261.4,82.57Z"/><path class="cls-4" d="M289.35,244.55a33.09,33.09,0,1,0,15.2,16.85A33,33,0,0,0,289.35,244.55Z"/></g></svg>