<svg xmlns="http://www.w3.org/2000/svg" viewBox="0 0 200 200"><defs><style>.cls-1{fill:#fff;}</style></defs><g id="Layer_2" data-name="Layer 2"><g id="Layer_1-2" data-name="Layer 1"><path class="cls-1" d="M141.46,100v41.46H100A41.46,41.46,0,1,1,141.46,100Z"/><path class="cls-1" d="M164.11,23.26A100,100,0,1,0,100,200h36.07a47.43,47.43,0,0,1-3.27-5.5A46.11,46.11,0,0,1,129,164.11H100A64.12,64.12,0,1,1,164.11,100v29a46.11,46.11,0,0,1,30.39,3.81,48.81,48.81,0,0,1,5.5,3.26V100A99.76,99.76,0,0,0,164.11,23.26Z"/><path class="cls-1" d="M186.13,150.85a25.86,25.86,0,0,0-12.23-3,26.08,26.08,0,0,0-26.1,26.1,25.86,25.86,0,0,0,3,12.23,26.1,26.1,0,1,0,35.28-35.28Z"/></g></g></svg>