<svg xmlns="http://www.w3.org/2000/svg" viewBox="0 0 360 360"><defs><style>.cls-1{fill:none;}</style></defs><g id="Layer_2" data-name="Layer 2"><g id="Layer_1-2" data-name="Layer 1"><rect class="cls-1" width="360" height="360"/><path d="M221.46,180v41.46H180A41.46,41.46,0,1,1,221.46,180Z"/><path d="M244.11,103.26A100,100,0,1,0,180,280h36.07a47.43,47.43,0,0,1-3.27-5.5A46.11,46.11,0,0,1,209,244.11H180A64.12,64.12,0,1,1,244.11,180v29a46.11,46.11,0,0,1,30.39,3.81,48.81,48.81,0,0,1,5.5,3.26V180A99.76,99.76,0,0,0,244.11,103.26Z"/><path d="M266.13,230.85a25.86,25.86,0,0,0-12.23-3,26.08,26.08,0,0,0-26.1,26.1,25.86,25.86,0,0,0,3,12.23,26.1,26.1,0,1,0,35.28-35.28Z"/></g></g></svg>