<svg xmlns="http://www.w3.org/2000/svg" viewBox="0 0 918.9 122.67"><defs><style>.cls-1{fill:#009245;}.cls-2{fill:#2e3192;}.cls-3{fill:#f7941d;}</style></defs><g id="Layer_2" data-name="Layer 2"><g id="Layer_1-2" data-name="Layer 1"><path class="cls-1" d="M86.77,61.34V86.77H61.34A25.43,25.43,0,1,1,86.77,61.34Z"/><path class="cls-2" d="M100.66,14.27a61.33,61.33,0,1,0-39.32,108.4H83.46a28.47,28.47,0,0,1-2-3.37,28,28,0,0,1-3-12.63,28.38,28.38,0,0,1,.65-6H61.34a39.33,39.33,0,1,1,39.32-39.32V79.12a28.38,28.38,0,0,1,6-.65,28,28,0,0,1,12.63,3,28.47,28.47,0,0,1,3.37,2V61.34A61.16,61.16,0,0,0,100.66,14.27Z"/><path class="cls-3" d="M114.17,92.52a16.09,16.09,0,0,0-13.51-.7,16,16,0,0,0-10,14.85,16,16,0,1,0,23.51-14.15Z"/><path class="cls-2" d="M159.6,17.72a23.17,23.17,0,0,1,9-9.15A26.3,26.3,0,0,1,181.77,5.3a25.13,25.13,0,0,1,15.41,4.75,22.85,22.85,0,0,1,8.57,13H192.21a11,11,0,0,0-4.28-4.83,12.09,12.09,0,0,0-6.3-1.65,11.77,11.77,0,0,0-9.22,4q-3.53,4-3.53,10.58t3.53,10.59a11.77,11.77,0,0,0,9.22,4,12.1,12.1,0,0,0,6.3-1.66,11,11,0,0,0,4.28-4.82h13.54a22.65,22.65,0,0,1-8.57,12.92,25.31,25.31,0,0,1-15.41,4.72,26.31,26.31,0,0,1-13.14-3.28,23.2,23.2,0,0,1-9-9.11,27,27,0,0,1-3.24-13.32A27.14,27.14,0,0,1,159.6,17.72Z"/><path class="cls-2" d="M252,47.49H233.11l-3,8.93H217.2L235.48,5.87h14.26L268,56.42H255ZM248.8,38l-6.26-18.5L236.35,38Z"/><path class="cls-2" d="M317.13,5.87v9.87H303.74V56.42H291.43V15.74H278V5.87Z"/><path class="cls-2" d="M362,47.49H343.12l-3,8.93H327.21L345.5,5.87h14.26L378,56.42H365ZM358.82,38l-6.26-18.5L346.36,38Z"/><path class="cls-2" d="M427.15,5.87v9.87h-13.4V56.42H401.44V15.74H388.05V5.87Z"/><path class="cls-2" d="M472,47.49H453.14l-3,8.93H437.23L455.51,5.87h14.26l18.29,50.55H475ZM468.83,38l-6.26-18.5L456.38,38Z"/><path class="cls-2" d="M546,56.42H533.71l-20.6-31.18V56.42H500.8V5.87h12.31l20.6,31.32V5.87H546Z"/><path class="cls-1" d="M585.76,17.72a23.13,23.13,0,0,1,9-9.15A26.25,26.25,0,0,1,607.94,5.3a25.15,25.15,0,0,1,15.41,4.75,22.83,22.83,0,0,1,8.56,13H618.38a11,11,0,0,0-4.29-4.83,12.09,12.09,0,0,0-6.3-1.65,11.75,11.75,0,0,0-9.21,4q-3.52,4-3.53,10.58t3.53,10.59a11.75,11.75,0,0,0,9.21,4,12.1,12.1,0,0,0,6.3-1.66,10.92,10.92,0,0,0,4.29-4.82h13.53a22.64,22.64,0,0,1-8.56,12.92,25.33,25.33,0,0,1-15.41,4.72A26.26,26.26,0,0,1,594.8,53.5a23.16,23.16,0,0,1-9-9.11,27,27,0,0,1-3.24-13.32A27.14,27.14,0,0,1,585.76,17.72Z"/><path class="cls-1" d="M678.14,47.49H659.27l-3,8.93H643.36L661.65,5.87H675.9l18.29,50.55h-13ZM675,38l-6.27-18.5L662.51,38Z"/><path class="cls-1" d="M736.24,56.42l-17-22.32V56.42H706.94V5.87h12.31V28.05L736.1,5.87h14.47L731,30.64l20.31,25.78Z"/><path class="cls-3" d="M818.25,47.49H799.38l-3,8.93H783.47L801.76,5.87H816L834.3,56.42h-13ZM815.08,38l-6.26-18.5L802.62,38Z"/><path class="cls-3" d="M880,9a22.59,22.59,0,0,1,9.25,8.89,26.08,26.08,0,0,1,3.28,13.21,26.12,26.12,0,0,1-3.28,13.18,22.51,22.51,0,0,1-9.28,8.93A29.52,29.52,0,0,1,866,56.42H847.05V5.87H866A29.41,29.41,0,0,1,880,9Zm-3.89,32.9q3.9-3.81,3.89-10.8t-3.89-10.87q-3.88-3.89-10.87-3.89h-5.83V45.76h5.83Q872.18,45.76,876.06,41.94Z"/><path class="cls-3" d="M918.9,5.87V56.42H906.59V5.87Z"/><path d="M174.56,91.79a6.58,6.58,0,0,0-.88-1.87,6,6,0,0,0-1.33-1.41,5.46,5.46,0,0,0-1.77-.89,7.49,7.49,0,0,0-2.17-.3,6.85,6.85,0,0,0-3.76,1.06,7.14,7.14,0,0,0-2.59,3.12,13.79,13.79,0,0,0,0,10,6.73,6.73,0,0,0,6.45,4.2,7.36,7.36,0,0,0,3.46-.77,5.4,5.4,0,0,0,2.26-2.18,6.66,6.66,0,0,0,.79-3.32l1.07.17H169V95.9h10.62v3.15a11.35,11.35,0,0,1-1.43,5.81,9.75,9.75,0,0,1-3.94,3.78,13.18,13.18,0,0,1-12.1-.31,11.08,11.08,0,0,1-4.26-4.64,15.58,15.58,0,0,1-1.52-7.15,16.6,16.6,0,0,1,.9-5.66,12.25,12.25,0,0,1,2.52-4.24A10.89,10.89,0,0,1,163.59,84a12.2,12.2,0,0,1,4.76-.91,12.64,12.64,0,0,1,4.05.63,10.75,10.75,0,0,1,3.34,1.8,9.79,9.79,0,0,1,2.41,2.76,9.59,9.59,0,0,1,1.24,3.53Z"/><path d="M191.15,87.18a2.67,2.67,0,0,1-1.89-.73,2.33,2.33,0,0,1-.8-1.77,2.36,2.36,0,0,1,.8-1.79,2.82,2.82,0,0,1,3.79,0,2.37,2.37,0,0,1,.78,1.79,2.35,2.35,0,0,1-.78,1.77A2.69,2.69,0,0,1,191.15,87.18Zm-2.33,22.43V90h4.63v19.64Z"/><path d="M219.35,90l-7,19.64h-5.11l-7-19.64h4.93l4.51,14.59h.21L214.42,90Z"/><path d="M234.16,110a10.08,10.08,0,0,1-5.1-1.23,8.27,8.27,0,0,1-3.29-3.51,12.9,12.9,0,0,1,0-10.67A8.72,8.72,0,0,1,229,91a9.1,9.1,0,0,1,4.89-1.29,10.07,10.07,0,0,1,3.44.59,7.81,7.81,0,0,1,2.86,1.79,8.49,8.49,0,0,1,2,3.09,12.39,12.39,0,0,1,.72,4.45v1.42h-16.1V97.93h11.66a5.12,5.12,0,0,0-.57-2.37,4.27,4.27,0,0,0-1.57-1.64,4.47,4.47,0,0,0-2.33-.6,4.61,4.61,0,0,0-2.5.68,4.83,4.83,0,0,0-1.66,1.79,5.15,5.15,0,0,0-.61,2.43v2.72a6.31,6.31,0,0,0,.63,2.93,4.34,4.34,0,0,0,1.75,1.87,5.18,5.18,0,0,0,2.63.64,5.58,5.58,0,0,0,1.83-.28,4.23,4.23,0,0,0,1.42-.85,3.66,3.66,0,0,0,.91-1.4l4.32.49a6.69,6.69,0,0,1-1.56,3,7.44,7.44,0,0,1-2.92,2A10.94,10.94,0,0,1,234.16,110Z"/><path d="M272.74,90v3.58H261.45V90Zm-8.5-4.7h4.63V103.7a2.8,2.8,0,0,0,.29,1.43,1.49,1.49,0,0,0,.76.67,2.87,2.87,0,0,0,1,.18,4.86,4.86,0,0,0,.8-.07l.56-.11.78,3.61a10.93,10.93,0,0,1-1.06.29,8.4,8.4,0,0,1-1.66.17,7.39,7.39,0,0,1-3.14-.53,4.8,4.8,0,0,1-2.2-1.8,5.4,5.4,0,0,1-.8-3.07Z"/><path d="M288.58,110a9.47,9.47,0,0,1-5-1.27,8.48,8.48,0,0,1-3.27-3.54,11.59,11.59,0,0,1-1.15-5.32,11.72,11.72,0,0,1,1.15-5.33A8.51,8.51,0,0,1,283.59,91a10.42,10.42,0,0,1,10,0,8.51,8.51,0,0,1,3.27,3.55A11.72,11.72,0,0,1,298,99.86a11.59,11.59,0,0,1-1.15,5.32,8.48,8.48,0,0,1-3.27,3.54A9.46,9.46,0,0,1,288.58,110Zm0-3.71a4,4,0,0,0,2.61-.86,5.14,5.14,0,0,0,1.56-2.32,10.45,10.45,0,0,0,0-6.51,5.15,5.15,0,0,0-1.56-2.34,4,4,0,0,0-2.61-.87,4,4,0,0,0-2.65.87,5.16,5.16,0,0,0-1.57,2.34,10.45,10.45,0,0,0,0,6.51,5.15,5.15,0,0,0,1.57,2.32A4.08,4.08,0,0,0,288.6,106.28Z"/><path d="M326.6,110a9.47,9.47,0,0,1-5-1.27,8.46,8.46,0,0,1-3.26-3.54,11.46,11.46,0,0,1-1.16-5.32,11.59,11.59,0,0,1,1.16-5.33A8.49,8.49,0,0,1,321.61,91a10.42,10.42,0,0,1,10,0,8.51,8.51,0,0,1,3.27,3.55A11.72,11.72,0,0,1,336,99.86a11.59,11.59,0,0,1-1.16,5.32,8.48,8.48,0,0,1-3.27,3.54A9.43,9.43,0,0,1,326.6,110Zm0-3.71a4,4,0,0,0,2.61-.86,5.23,5.23,0,0,0,1.57-2.32,10.64,10.64,0,0,0,0-6.51,5.24,5.24,0,0,0-1.57-2.34,4,4,0,0,0-2.61-.87,4,4,0,0,0-2.65.87,5.16,5.16,0,0,0-1.57,2.34,10.45,10.45,0,0,0,0,6.51,5.15,5.15,0,0,0,1.57,2.32A4.08,4.08,0,0,0,326.62,106.28Z"/><path d="M353.32,90v3.58H342V90Zm-8.5-4.7h4.63V103.7a2.8,2.8,0,0,0,.29,1.43,1.49,1.49,0,0,0,.76.67,2.89,2.89,0,0,0,1.05.18,4.74,4.74,0,0,0,.79-.07l.56-.11.78,3.61c-.25.09-.6.18-1.05.29a8.6,8.6,0,0,1-1.67.17,7.32,7.32,0,0,1-3.13-.53,4.78,4.78,0,0,1-2.21-1.8,5.4,5.4,0,0,1-.8-3.07Z"/><path d="M365.83,98.1v11.51H361.2V83.42h4.53v9.89H366a5.67,5.67,0,0,1,2.14-2.63,6.58,6.58,0,0,1,3.7-1,7.17,7.17,0,0,1,3.57.86,5.85,5.85,0,0,1,2.36,2.51,8.78,8.78,0,0,1,.84,4v12.51h-4.63V97.82a4.4,4.4,0,0,0-1-3.09,3.65,3.65,0,0,0-2.84-1.1,4.45,4.45,0,0,0-2.2.53,3.72,3.72,0,0,0-1.5,1.52A4.92,4.92,0,0,0,365.83,98.1Z"/><path d="M395.56,110a10,10,0,0,1-5.09-1.23,8.21,8.21,0,0,1-3.29-3.51,12.95,12.95,0,0,1,0-10.67A8.72,8.72,0,0,1,390.42,91a9.12,9.12,0,0,1,4.9-1.29,10,10,0,0,1,3.43.59,7.85,7.85,0,0,1,2.87,1.79,8.49,8.49,0,0,1,2,3.09,12.4,12.4,0,0,1,.71,4.45v1.42H388.2V97.93h11.66a5,5,0,0,0-.58-2.37,4.17,4.17,0,0,0-1.56-1.64,4.48,4.48,0,0,0-2.34-.6,4.6,4.6,0,0,0-2.49.68,4.94,4.94,0,0,0-1.67,1.79,5.14,5.14,0,0,0-.6,2.43v2.72a6.31,6.31,0,0,0,.62,2.93,4.4,4.4,0,0,0,1.75,1.87,5.21,5.21,0,0,0,2.64.64,5.48,5.48,0,0,0,1.82-.28,4.14,4.14,0,0,0,1.42-.85,3.55,3.55,0,0,0,.91-1.4l4.32.49a6.67,6.67,0,0,1-1.55,3,7.51,7.51,0,0,1-2.92,2A11,11,0,0,1,395.56,110Z"/><path d="M411.81,109.61V90h4.48v3.27h.21a4.86,4.86,0,0,1,1.85-2.62,5,5,0,0,1,3-.93l.87,0a5.11,5.11,0,0,1,.8.1v4.25a5.64,5.64,0,0,0-.93-.18,8.66,8.66,0,0,0-1.22-.09,4.71,4.71,0,0,0-2.27.55,4,4,0,0,0-1.58,1.5,4.26,4.26,0,0,0-.58,2.21v11.55Z"/><path d="M445.2,95.16l-4.21.46a3.44,3.44,0,0,0-.62-1.2,3.15,3.15,0,0,0-1.19-.91,4.27,4.27,0,0,0-1.81-.34,4.35,4.35,0,0,0-2.42.62,1.83,1.83,0,0,0-1,1.63,1.68,1.68,0,0,0,.63,1.39,5.3,5.3,0,0,0,2.14.88l3.35.72a8.45,8.45,0,0,1,4.15,1.9,4.56,4.56,0,0,1,1.38,3.42,5.34,5.34,0,0,1-1.08,3.26,7.09,7.09,0,0,1-3,2.21,11.14,11.14,0,0,1-4.35.79,10,10,0,0,1-5.8-1.52,6,6,0,0,1-2.62-4.22l4.51-.43a3.17,3.17,0,0,0,1.3,2,4.56,4.56,0,0,0,2.6.68,4.67,4.67,0,0,0,2.65-.68,2,2,0,0,0,1-1.67,1.75,1.75,0,0,0-.64-1.4,4.75,4.75,0,0,0-2-.84l-3.35-.7a7.91,7.91,0,0,1-4.18-2,4.82,4.82,0,0,1-1.34-3.55,5,5,0,0,1,1-3.15,6.4,6.4,0,0,1,2.8-2.07,10.85,10.85,0,0,1,4.14-.74,9,9,0,0,1,5.44,1.47A6.16,6.16,0,0,1,445.2,95.16Z"/><path d="M458.48,106l-.16,1.4a20.63,20.63,0,0,1-.64,3.28c-.3,1.11-.62,2.14-.95,3.08s-.6,1.67-.8,2.21h-3.12c.12-.52.28-1.23.49-2.12s.41-1.9.61-3a31.86,31.86,0,0,0,.39-3.4l.09-1.43Z"/><path d="M479.19,109.61V83.42h17v4H483.94v7.11h11.4v4h-11.4v7.15h12.39v4Z"/><path d="M511.75,110a7.45,7.45,0,0,1-4.14-1.19,8.06,8.06,0,0,1-2.89-3.45,14.75,14.75,0,0,1,0-11,7.94,7.94,0,0,1,2.92-3.41,7.56,7.56,0,0,1,4.1-1.16,6.07,6.07,0,0,1,2.84.59,5.47,5.47,0,0,1,1.77,1.39,8.91,8.91,0,0,1,1,1.53h.19v-9.8h4.64v26.19h-4.55v-3.1h-.28a8.1,8.1,0,0,1-1,1.52,5.76,5.76,0,0,1-1.79,1.36A6.23,6.23,0,0,1,511.75,110Zm1.29-3.8a4,4,0,0,0,2.51-.79,5,5,0,0,0,1.57-2.24,10.57,10.57,0,0,0,0-6.64,4.86,4.86,0,0,0-1.56-2.19,4.5,4.5,0,0,0-5.11,0,4.81,4.81,0,0,0-1.56,2.22,10.42,10.42,0,0,0,0,6.53,4.93,4.93,0,0,0,1.57,2.26A4,4,0,0,0,513,106.15Z"/><path d="M543.27,101.35V90h4.63v19.64h-4.49v-3.49h-.2a6,6,0,0,1-2.18,2.69,6.4,6.4,0,0,1-3.73,1,6.7,6.7,0,0,1-3.41-.86,5.93,5.93,0,0,1-2.3-2.52,8.77,8.77,0,0,1-.83-4V90h4.62v11.79a4.14,4.14,0,0,0,1,3,3.46,3.46,0,0,0,2.68,1.1,4.16,4.16,0,0,0,2-.5,4,4,0,0,0,1.58-1.49A4.63,4.63,0,0,0,543.27,101.35Z"/><path d="M564.82,110a9.44,9.44,0,0,1-5-1.29,8.55,8.55,0,0,1-3.24-3.57,11.81,11.81,0,0,1-1.13-5.27,11.59,11.59,0,0,1,1.15-5.28A8.63,8.63,0,0,1,559.82,91a9.31,9.31,0,0,1,5-1.29,9.82,9.82,0,0,1,4.24.88,7.16,7.16,0,0,1,4.2,6.18h-4.42a4.24,4.24,0,0,0-1.27-2.37,3.72,3.72,0,0,0-2.68-1,4.2,4.2,0,0,0-2.5.76,4.84,4.84,0,0,0-1.66,2.18,8.69,8.69,0,0,0-.6,3.4,9.1,9.1,0,0,0,.59,3.44,4.86,4.86,0,0,0,1.66,2.21,4.45,4.45,0,0,0,4.34.39,3.62,3.62,0,0,0,1.36-1.13,4.43,4.43,0,0,0,.76-1.81h4.42a7.64,7.64,0,0,1-1.23,3.69,7.15,7.15,0,0,1-2.89,2.51A9.58,9.58,0,0,1,564.82,110Z"/><path d="M586.29,110a8,8,0,0,1-3.35-.67,5.41,5.41,0,0,1-2.36-2,5.81,5.81,0,0,1-.86-3.24,5.62,5.62,0,0,1,.61-2.75A4.68,4.68,0,0,1,582,99.61a8.31,8.31,0,0,1,2.4-1,18.94,18.94,0,0,1,2.76-.49c1.15-.12,2.09-.23,2.8-.33a4.09,4.09,0,0,0,1.57-.46,1.08,1.08,0,0,0,.49-1v-.07a2.9,2.9,0,0,0-.85-2.24,3.53,3.53,0,0,0-2.47-.8A4.34,4.34,0,0,0,586,94a3.62,3.62,0,0,0-1.34,1.75l-4.32-.62a6.84,6.84,0,0,1,1.69-3,7.43,7.43,0,0,1,2.87-1.82,11.27,11.27,0,0,1,3.76-.61,11.84,11.84,0,0,1,2.83.34,8,8,0,0,1,2.57,1.09A5.64,5.64,0,0,1,596,93.2a6.81,6.81,0,0,1,.71,3.26v13.15h-4.45v-2.7h-.15a5.77,5.77,0,0,1-1.19,1.53,5.55,5.55,0,0,1-1.9,1.13A7.53,7.53,0,0,1,586.29,110Zm1.2-3.4a5,5,0,0,0,2.42-.55,4.18,4.18,0,0,0,1.58-1.48,3.8,3.8,0,0,0,.55-2v-2.31a2.09,2.09,0,0,1-.73.33c-.35.1-.73.19-1.16.27s-.85.14-1.26.2l-1.09.16a7.48,7.48,0,0,0-1.85.46,3.11,3.11,0,0,0-1.3.89,2.22,2.22,0,0,0-.47,1.46,2.19,2.19,0,0,0,.94,1.93A4.07,4.07,0,0,0,587.49,106.6Z"/><path d="M614.73,90v3.58H603.44V90Zm-8.5-4.7h4.63V103.7a2.8,2.8,0,0,0,.29,1.43,1.49,1.49,0,0,0,.76.67,2.87,2.87,0,0,0,1,.18,4.86,4.86,0,0,0,.8-.07l.56-.11.78,3.61a10.93,10.93,0,0,1-1.06.29,8.4,8.4,0,0,1-1.66.17,7.39,7.39,0,0,1-3.14-.53,4.75,4.75,0,0,1-2.2-1.8,5.4,5.4,0,0,1-.8-3.07Z"/><path d="M630.69,110a10,10,0,0,1-5.09-1.23,8.21,8.21,0,0,1-3.29-3.51,12.95,12.95,0,0,1,0-10.67A8.72,8.72,0,0,1,625.55,91a9.12,9.12,0,0,1,4.9-1.29,10,10,0,0,1,3.43.59,7.85,7.85,0,0,1,2.87,1.79,8.49,8.49,0,0,1,2,3.09,12.4,12.4,0,0,1,.71,4.45v1.42H623.33V97.93H635a5,5,0,0,0-.58-2.37,4.17,4.17,0,0,0-1.56-1.64,4.48,4.48,0,0,0-2.34-.6A4.6,4.6,0,0,0,628,94a4.94,4.94,0,0,0-1.67,1.79,5.14,5.14,0,0,0-.6,2.43v2.72a6.31,6.31,0,0,0,.62,2.93,4.4,4.4,0,0,0,1.75,1.87,5.21,5.21,0,0,0,2.64.64,5.48,5.48,0,0,0,1.82-.28,4.14,4.14,0,0,0,1.42-.85,3.55,3.55,0,0,0,.91-1.4l4.32.49a6.67,6.67,0,0,1-1.55,3,7.51,7.51,0,0,1-2.92,2A11,11,0,0,1,630.69,110Z"/><path d="M669.28,90v3.58H658V90Zm-8.5-4.7h4.62V103.7a2.91,2.91,0,0,0,.29,1.43,1.53,1.53,0,0,0,.76.67,3,3,0,0,0,1,.18,4.86,4.86,0,0,0,.8-.07l.56-.11.78,3.61a10.93,10.93,0,0,1-1.06.29,8.51,8.51,0,0,1-1.67.17,7.34,7.34,0,0,1-3.13-.53,4.83,4.83,0,0,1-2.21-1.8,5.4,5.4,0,0,1-.79-3.07Z"/><path d="M685.11,110a9.41,9.41,0,0,1-5-1.27,8.48,8.48,0,0,1-3.27-3.54,11.59,11.59,0,0,1-1.16-5.32,11.72,11.72,0,0,1,1.16-5.33A8.51,8.51,0,0,1,680.13,91a10.42,10.42,0,0,1,10,0,8.55,8.55,0,0,1,3.26,3.55,11.59,11.59,0,0,1,1.16,5.33,11.46,11.46,0,0,1-1.16,5.32,8.53,8.53,0,0,1-3.26,3.54A9.47,9.47,0,0,1,685.11,110Zm0-3.71a4,4,0,0,0,2.61-.86,5.22,5.22,0,0,0,1.56-2.32,10.45,10.45,0,0,0,0-6.51,5.23,5.23,0,0,0-1.56-2.34,4,4,0,0,0-2.61-.87,4.05,4.05,0,0,0-2.66.87,5.24,5.24,0,0,0-1.57,2.34,10.45,10.45,0,0,0,0,6.51,5.23,5.23,0,0,0,1.57,2.32A4.1,4.1,0,0,0,685.14,106.28Z"/><path d="M710.57,117.38a12.37,12.37,0,0,1-4.28-.67,7.79,7.79,0,0,1-2.88-1.8,6.35,6.35,0,0,1-1.51-2.49l4.17-1a4.78,4.78,0,0,0,.82,1.14,4.11,4.11,0,0,0,1.45,1,6.13,6.13,0,0,0,2.31.38,5.32,5.32,0,0,0,3.26-1,3.61,3.61,0,0,0,1.29-3.12v-3.72H715a6.77,6.77,0,0,1-1,1.47,5.5,5.5,0,0,1-1.81,1.26,6.74,6.74,0,0,1-2.8.51,8,8,0,0,1-4.1-1.06,7.51,7.51,0,0,1-2.91-3.2,11.75,11.75,0,0,1-1.08-5.34,12.48,12.48,0,0,1,1.08-5.46,7.94,7.94,0,0,1,2.92-3.39,7.53,7.53,0,0,1,4.1-1.16,6.15,6.15,0,0,1,2.85.59A5.52,5.52,0,0,1,714,91.69a7.87,7.87,0,0,1,1,1.53h.26V90h4.56v20a6.9,6.9,0,0,1-1.2,4.16,7.18,7.18,0,0,1-3.29,2.47A12.75,12.75,0,0,1,710.57,117.38Zm0-11.69a4.29,4.29,0,0,0,2.51-.71,4.42,4.42,0,0,0,1.57-2.06,8.65,8.65,0,0,0,.54-3.22,9,9,0,0,0-.54-3.25,4.71,4.71,0,0,0-1.56-2.17,4.51,4.51,0,0,0-5.1,0,4.86,4.86,0,0,0-1.56,2.2,9,9,0,0,0-.53,3.18,8.66,8.66,0,0,0,.53,3.15,4.59,4.59,0,0,0,1.58,2.1A4.33,4.33,0,0,0,710.61,105.69Z"/><path d="M736.84,110a10.08,10.08,0,0,1-5.1-1.23,8.33,8.33,0,0,1-3.29-3.51,12.9,12.9,0,0,1,0-10.67A8.72,8.72,0,0,1,731.7,91a9.12,9.12,0,0,1,4.9-1.29,10,10,0,0,1,3.43.59,7.73,7.73,0,0,1,2.86,1.79,8.36,8.36,0,0,1,2,3.09,12.39,12.39,0,0,1,.72,4.45v1.42h-16.1V97.93h11.66a5.12,5.12,0,0,0-.57-2.37A4.27,4.27,0,0,0,739,93.92a4.44,4.44,0,0,0-2.33-.6,4.55,4.55,0,0,0-2.49.68,4.77,4.77,0,0,0-1.67,1.79,5.15,5.15,0,0,0-.61,2.43v2.72a6.31,6.31,0,0,0,.63,2.93,4.4,4.4,0,0,0,1.75,1.87,5.2,5.2,0,0,0,2.63.64,5.5,5.5,0,0,0,1.83-.28,4.14,4.14,0,0,0,1.42-.85,3.66,3.66,0,0,0,.91-1.4l4.32.49a6.69,6.69,0,0,1-1.56,3,7.44,7.44,0,0,1-2.92,2A10.94,10.94,0,0,1,736.84,110Z"/><path d="M762.89,90v3.58H751.6V90Zm-8.5-4.7H759V103.7a2.91,2.91,0,0,0,.29,1.43,1.53,1.53,0,0,0,.76.67,3,3,0,0,0,1.05.18,4.86,4.86,0,0,0,.8-.07l.56-.11.77,3.61a9.85,9.85,0,0,1-1,.29,8.51,8.51,0,0,1-1.67.17,7.34,7.34,0,0,1-3.13-.53,4.83,4.83,0,0,1-2.21-1.8,5.4,5.4,0,0,1-.79-3.07Z"/><path d="M775.4,98.1v11.51h-4.63V83.42h4.52v9.89h.23a5.73,5.73,0,0,1,2.14-2.63,6.62,6.62,0,0,1,3.71-1,7.13,7.13,0,0,1,3.56.86,5.8,5.8,0,0,1,2.36,2.51,8.78,8.78,0,0,1,.84,4v12.51H783.5V97.82a4.4,4.4,0,0,0-1-3.09,3.63,3.63,0,0,0-2.84-1.1,4.38,4.38,0,0,0-2.19.53,3.69,3.69,0,0,0-1.51,1.52A5,5,0,0,0,775.4,98.1Z"/><path d="M805.13,110a10.08,10.08,0,0,1-5.1-1.23,8.27,8.27,0,0,1-3.29-3.51,12.9,12.9,0,0,1,0-10.67A8.72,8.72,0,0,1,800,91a9.1,9.1,0,0,1,4.89-1.29,10.07,10.07,0,0,1,3.44.59,7.81,7.81,0,0,1,2.86,1.79,8.49,8.49,0,0,1,2,3.09,12.39,12.39,0,0,1,.72,4.45v1.42h-16.1V97.93h11.66a5.12,5.12,0,0,0-.57-2.37,4.27,4.27,0,0,0-1.57-1.64,4.47,4.47,0,0,0-2.33-.6,4.61,4.61,0,0,0-2.5.68,4.83,4.83,0,0,0-1.66,1.79,5.15,5.15,0,0,0-.61,2.43v2.72a6.31,6.31,0,0,0,.63,2.93,4.34,4.34,0,0,0,1.75,1.87,5.18,5.18,0,0,0,2.63.64,5.58,5.58,0,0,0,1.83-.28,4.23,4.23,0,0,0,1.42-.85,3.66,3.66,0,0,0,.91-1.4l4.32.49a6.69,6.69,0,0,1-1.56,3,7.44,7.44,0,0,1-2.92,2A10.94,10.94,0,0,1,805.13,110Z"/><path d="M821.37,109.61V90h4.49v3.27h.2a4.86,4.86,0,0,1,1.85-2.62,5,5,0,0,1,3-.93l.86,0a5.11,5.11,0,0,1,.8.1v4.25a5.64,5.64,0,0,0-.93-.18,8.66,8.66,0,0,0-1.22-.09,4.73,4.73,0,0,0-2.27.55,4.07,4.07,0,0,0-1.58,1.5,4.25,4.25,0,0,0-.57,2.21v11.55Z"/></g></g></svg>